<svg width="400" height="139" viewBox="0 0 400 139" fill="none" xmlns="http://www.w3.org/2000/svg">
<path d="M14.4697 4.14292V0H30.9045V4.14292H14.4697Z" fill="#B3D800"/>
<path d="M34.9998 4.14292V0H51.4345V4.14292H34.9998Z" fill="#B3D800"/>
<path d="M55.5298 4.14292V0H71.9645V4.14292H55.5298Z" fill="#B3D800"/>
<path d="M117.12 4.14292V0H133.555V4.14292H117.12Z" fill="#B3D800"/>
<path d="M137.65 4.14292V0H154.085V4.14292H137.65Z" fill="#B3D800"/>
<path d="M158.18 4.14292V0H174.615V4.14292H158.18Z" fill="#B3D800"/>
<path d="M219.77 4.14292V0H236.205V4.14292H219.77Z" fill="#B3D800"/>
<path d="M363.48 4.14292V0H379.915V4.14292H363.48Z" fill="#B3D800"/>
<path d="M0 47.0987V16.352H4.31412V47.0987H0Z" fill="#B3D800"/>
<path d="M34.9998 48.9476V44.8047H51.4345V48.9476H34.9998Z" fill="#B3D800"/>
<path d="M88.5913 31.7253C88.5913 33.3916 88.3973 35.0009 88.0093 36.5531C87.644 38.0824 87.1305 39.509 86.4685 40.8329C85.8294 42.1568 85.0761 43.3552 84.2087 44.428C83.3413 45.5008 82.4283 46.3911 81.4696 47.0987H76.4022C77.4522 46.3682 78.4566 45.5123 79.4153 44.5307C80.3968 43.572 81.2413 42.5106 81.949 41.3465C82.6794 40.1824 83.2615 38.9384 83.6951 37.6145C84.1288 36.2906 84.3457 34.9096 84.3457 33.4715V29.9792C84.3457 28.5411 84.1288 27.1601 83.6951 25.8362C83.2615 24.5123 82.6794 23.2683 81.949 22.1042C81.2413 20.9401 80.3968 19.8786 79.4153 18.92C78.4566 17.9384 77.4522 17.0825 76.4022 16.352H81.4696C82.4283 17.0825 83.3413 17.9841 84.2087 19.0569C85.0761 20.1069 85.8294 21.2939 86.4685 22.6178C87.1305 23.9417 87.644 25.3797 88.0093 26.9319C88.3973 28.4612 88.5913 30.059 88.5913 31.7253Z" fill="#B3D800"/>
<path d="M102.65 47.0987V16.352H106.964V47.0987H102.65Z" fill="#B3D800"/>
<path d="M137.65 48.9476V44.8047H154.085V48.9476H137.65Z" fill="#B3D800"/>
<path d="M191.242 31.7253C191.242 33.3916 191.047 35.0009 190.659 36.5531C190.294 38.0824 189.781 39.509 189.119 40.8329C188.48 42.1568 187.726 43.3552 186.859 44.428C185.992 45.5008 185.078 46.3911 184.12 47.0987H179.052C180.102 46.3682 181.107 45.5123 182.065 44.5307C183.047 43.572 183.892 42.5106 184.599 41.3465C185.33 40.1824 185.912 38.9384 186.345 37.6145C186.779 36.2906 186.996 34.9096 186.996 33.4715V29.9792C186.996 28.5411 186.779 27.1601 186.345 25.8362C185.912 24.5123 185.33 23.2683 184.599 22.1042C183.892 20.9401 183.047 19.8786 182.065 18.92C181.107 17.9384 180.102 17.0825 179.052 16.352H184.12C185.078 17.0825 185.992 17.9841 186.859 19.0569C187.726 20.1069 188.48 21.2939 189.119 22.6178C189.781 23.9417 190.294 25.3797 190.659 26.9319C191.047 28.4612 191.242 30.059 191.242 31.7253Z" fill="#B3D800"/>
<path d="M210.676 47.0987L199.685 16.352H204.239L215.23 47.0987H210.676Z" fill="#B3D800"/>
<path d="M251.736 47.0987L240.745 16.352H245.299L256.29 47.0987H251.736Z" fill="#B3D800"/>
<path d="M281.805 47.0987L292.796 16.352H297.35L286.359 47.0987H281.805Z" fill="#B3D800"/>
<path d="M313.326 47.0987L302.335 16.352H306.889L317.88 47.0987H313.326Z" fill="#B3D800"/>
<path d="M343.395 47.0987L354.386 16.352H358.94L347.949 47.0987H343.395Z" fill="#B3D800"/>
<path d="M384.456 47.0987L395.446 16.352H400L389.009 47.0987H384.456Z" fill="#B3D800"/>
<path d="M0 91.9033V61.1567H4.31412V91.9033H0Z" fill="#B3D800"/>
<path d="M34.9998 93.7522V89.6093H51.4345V93.7522H34.9998Z" fill="#B3D800"/>
<path d="M87.4957 91.9033L76.5049 61.1567H81.0587L92.0495 91.9033H87.4957Z" fill="#B3D800"/>
<path d="M102.65 91.9033V61.1567H106.964V91.9033H102.65Z" fill="#B3D800"/>
<path d="M137.65 93.7522V89.6093H154.085V93.7522H137.65Z" fill="#B3D800"/>
<path d="M190.146 91.9033L179.155 61.1567H183.709L194.7 91.9033H190.146Z" fill="#B3D800"/>
<path d="M231.206 91.9033L220.215 61.1567H224.769L235.76 91.9033H231.206Z" fill="#B3D800"/>
<path d="M265.418 87.1783L259.084 63.2795H264.802L267.609 75.4344L269.013 82.3164H269.287L270.725 75.4344L273.567 63.2795H279.011L272.677 87.1783H265.418Z" fill="#B3D800"/>
<path d="M327.008 87.1783L320.674 63.2795H326.392L329.2 75.4344L330.603 82.3164H330.877L332.315 75.4344L335.157 63.2795H340.601L334.267 87.1783H327.008Z" fill="#B3D800"/>
<path d="M363.925 91.9033L374.916 61.1567H379.47L368.479 91.9033H363.925Z" fill="#B3D800"/>
<path d="M0 136.708V105.961H4.31412V136.708H0Z" fill="#B3D800"/>
<path d="M14.4697 138.557V134.414H30.9045V138.557H14.4697Z" fill="#B3D800"/>
<path d="M34.9998 138.557V134.414H51.4345V138.557H34.9998Z" fill="#B3D800"/>
<path d="M55.5298 138.557V134.414H71.9645V138.557H55.5298Z" fill="#B3D800"/>
<path d="M76.5049 136.708L87.4957 105.961H92.0495L81.0587 136.708H76.5049Z" fill="#B3D800"/>
<path d="M102.65 136.708V105.961H106.964V136.708H102.65Z" fill="#B3D800"/>
<path d="M117.12 138.557V134.414H133.555V138.557H117.12Z" fill="#B3D800"/>
<path d="M137.65 138.557V134.414H154.085V138.557H137.65Z" fill="#B3D800"/>
<path d="M158.18 138.557V134.414H174.615V138.557H158.18Z" fill="#B3D800"/>
<path d="M179.155 136.708L190.146 105.961H194.7L183.709 136.708H179.155Z" fill="#B3D800"/>
<path d="M251.736 136.708L240.745 105.961H245.299L256.29 136.708H251.736Z" fill="#B3D800"/>
<path d="M260.83 138.557V134.414H277.265V138.557H260.83Z" fill="#B3D800"/>
<path d="M281.805 136.708L292.796 105.961H297.35L286.359 136.708H281.805Z" fill="#B3D800"/>
<path d="M313.326 136.708L302.335 105.961H306.889L317.88 136.708H313.326Z" fill="#B3D800"/>
<path d="M322.42 138.557V134.414H338.855V138.557H322.42Z" fill="#B3D800"/>
<path d="M343.395 136.708L354.386 105.961H358.94L347.949 136.708H343.395Z" fill="#B3D800"/>
</svg>
